<svg width="55" height="55" viewBox="0 0 55 55" fill="none" xmlns="http://www.w3.org/2000/svg">
<path d="M22.085 23.0725C20.5175 23.0725 19.28 24.4475 19.28 26.125C19.28 27.8025 20.545 29.1775 22.085 29.1775C23.6525 29.1775 24.89 27.8025 24.89 26.125C24.9175 24.4475 23.6525 23.0725 22.085 23.0725ZM32.1225 23.0725C30.555 23.0725 29.3175 24.4475 29.3175 26.125C29.3175 27.8025 30.5825 29.1775 32.1225 29.1775C33.69 29.1775 34.9275 27.8025 34.9275 26.125C34.9275 24.4475 33.69 23.0725 32.1225 23.0725Z" fill="#7289DA"/>
<path d="M45.4875 0H8.6375C5.53 0 3 2.53 3 5.665V42.845C3 45.98 5.53 48.51 8.6375 48.51H39.8225L38.365 43.4225L41.885 46.695L45.2125 49.775L51.125 55V5.665C51.125 2.53 48.595 0 45.4875 0ZM34.8725 35.915C34.8725 35.915 33.8825 34.7325 33.0575 33.6875C36.66 32.67 38.035 30.415 38.035 30.415C36.9075 31.1575 35.835 31.68 34.8725 32.0375C33.4975 32.615 32.1775 33 30.885 33.22C28.245 33.715 25.825 33.5775 23.7625 33.1925C22.195 32.89 20.8475 32.45 19.72 32.01C19.0875 31.7625 18.4 31.46 17.7125 31.075C17.63 31.02 17.5475 30.9925 17.465 30.9375C17.41 30.91 17.3825 30.8825 17.355 30.855C16.86 30.58 16.585 30.3875 16.585 30.3875C16.585 30.3875 17.905 32.5875 21.3975 33.6325C20.5725 34.6775 19.555 35.915 19.555 35.915C13.4775 35.7225 11.1675 31.735 11.1675 31.735C11.1675 22.88 15.1275 15.7025 15.1275 15.7025C19.0875 12.7325 22.855 12.815 22.855 12.815L23.13 13.145C18.18 14.575 15.8975 16.7475 15.8975 16.7475C15.8975 16.7475 16.5025 16.4175 17.52 15.95C20.4625 14.6575 22.8 14.3 23.7625 14.2175C23.9275 14.19 24.065 14.1625 24.23 14.1625C25.9075 13.9425 27.805 13.8875 29.785 14.1075C32.3975 14.41 35.2025 15.18 38.0625 16.7475C38.0625 16.7475 35.89 14.685 31.215 13.255L31.6 12.815C31.6 12.815 35.3675 12.7325 39.3275 15.7025C39.3275 15.7025 43.2875 22.88 43.2875 31.735C43.2875 31.735 40.95 35.7225 34.8725 35.915Z" fill="#7289DA"/>
</svg>
