<svg width="75" height="65" viewBox="0 0 75 65" fill="none" xmlns="http://www.w3.org/2000/svg">
<path d="M27.2964 54.6904C48.0512 54.6904 59.4032 37.4952 59.4032 22.5836C59.4032 22.0952 59.4032 21.609 59.3702 21.125C61.5786 19.5276 63.485 17.5497 65 15.284C62.9407 16.197 60.7559 16.7954 58.5188 17.0594C60.8746 15.6493 62.6377 13.4312 63.4798 10.818C61.2648 12.1325 58.8415 13.0588 56.3144 13.557C54.613 11.7479 52.3629 10.5499 49.9121 10.1485C47.4613 9.74713 44.9466 10.1646 42.757 11.3365C40.5674 12.5083 38.8251 14.3691 37.7996 16.6309C36.7741 18.8927 36.5227 21.4294 37.0842 23.8486C32.5979 23.6235 28.209 22.4576 24.2025 20.4265C20.196 18.3954 16.6613 15.5444 13.828 12.0588C12.385 14.5429 11.943 17.4837 12.5921 20.2822C13.2412 23.0808 14.9324 25.5268 17.3216 27.1222C15.5257 27.0695 13.769 26.5851 12.2 25.7098V25.8528C12.2007 28.458 13.1026 30.9829 14.7526 32.999C16.4027 35.0152 18.6993 36.3985 21.253 36.9144C19.5917 37.3675 17.8487 37.4337 16.1578 37.108C16.8792 39.35 18.2831 41.3105 20.1733 42.7155C22.0634 44.1206 24.3454 44.8998 26.7002 44.9444C24.3606 46.7834 21.6813 48.143 18.8158 48.9456C15.9502 49.7482 12.9545 49.9779 10 49.6216C15.1605 52.9331 21.1648 54.6896 27.2964 54.6816" fill="#1DA1F2"/>
</svg>
